<svg version="1.1" viewBox="0.0 0.0 351.1391076115486 360.18635170603676" fill="none" stroke="none" stroke-linecap="square" stroke-miterlimit="10" xmlns:xlink="http://www.w3.org/1999/xlink" xmlns="http://www.w3.org/2000/svg"><clipPath id="p.0"><path d="m0 0l351.1391 0l0 360.18634l-351.1391 0l0 -360.18634z" clip-rule="nonzero"/></clipPath><g clip-path="url(#p.0)"><path fill="#000000" fill-opacity="0.0" d="m0 0l351.1391 0l0 360.18634l-351.1391 0z" fill-rule="evenodd"/><path fill="#000000" d="m269.1969 12.041153l0 0c6.5753784 -6.5753646 17.236145 -6.5753646 23.811523 0l47.62155 47.62157l0 0c3.1576233 3.1576004 4.9315186 7.4402275 4.9315186 11.90575c0 4.465523 -1.7738953 8.748146 -4.9315186 11.905746l-265.16486 265.1649c-6.575363 6.5753784 -17.236134 6.5753784 -23.811497 0l-47.621574 -47.621582c-6.575364 -6.575348 -6.575364 -17.236115 0 -23.811493z" fill-rule="evenodd"/><path stroke="#000000" stroke-width="1.0" stroke-linejoin="round" stroke-linecap="butt" d="m269.1969 12.041153l0 0c6.5753784 -6.5753646 17.236145 -6.5753646 23.811523 0l47.62155 47.62157l0 0c3.1576233 3.1576004 4.9315186 7.4402275 4.9315186 11.90575c0 4.465523 -1.7738953 8.748146 -4.9315186 11.905746l-265.16486 265.1649c-6.575363 6.5753784 -17.236134 6.5753784 -23.811497 0l-47.621574 -47.621582c-6.575364 -6.575348 -6.575364 -17.236115 0 -23.811493z" fill-rule="evenodd"/><path fill="#000000" d="m343.86813 273.94904l0 0c6.575348 6.5753784 6.575348 17.236145 0 23.811523l-47.621582 47.62155l0 0c-3.1575928 3.1575928 -7.440216 4.9315186 -11.905731 4.9315186c-4.4655457 0 -8.748169 -1.7739258 -11.905762 -4.9315186l-265.1649 -265.16486c-6.575364 -6.575363 -6.575364 -17.236137 0 -23.8115l47.621574 -47.62157c6.575363 -6.575364 17.236137 -6.575364 23.8115 0z" fill-rule="evenodd"/><path stroke="#000000" stroke-width="1.0" stroke-linejoin="round" stroke-linecap="butt" d="m343.86813 273.94904l0 0c6.575348 6.5753784 6.575348 17.236145 0 23.811523l-47.621582 47.62155l0 0c-3.1575928 3.1575928 -7.440216 4.9315186 -11.905731 4.9315186c-4.4655457 0 -8.748169 -1.7739258 -11.905762 -4.9315186l-265.1649 -265.16486c-6.575364 -6.575363 -6.575364 -17.236137 0 -23.8115l47.621574 -47.62157c6.575363 -6.575364 17.236137 -6.575364 23.8115 0z" fill-rule="evenodd"/></g></svg>